<svg version="1.1"
      xmlns="http://www.w3.org/2000/svg"
      xmlns:xlink="http://www.w3.org/1999/xlink"  id="snapshot-19141" width="700" height="650" viewBox="0 0 700 650"><desc>This image was made on Patterninja.com</desc><defs>
<!-- image 41723 -->
<g id="transformed-41723" data-image="41723" transform="translate(-27.193537326177392, -65.19353732617736) rotate(33, 235.1935373261774, 235.19353732617736)"><g><svg version="1.1" width="470.3870746523548px" height="470.3870746523547px" viewBox="0 0 470.3870746523548 470.3870746523547"><g id="original-41723"><svg xmlns="http://www.w3.org/2000/svg" version="1.1" viewBox="0 0 512 512" xmlns:xlink="http://www.w3.org/1999/xlink" preserveAspectRatio="xMidYMid meet">
  <path d="M197 38.9c-2.5 1-37.3 16.1-77.5 33.6C79.4 89.9 42.2 106 37 108.3c-13.3 5.6-16.9 9.4-15.5 15.9.4 1.6 10.8 15 25.1 32 13.4 16.1 24.2 29.8 24 30.4-.3.7-10.9 13.9-23.8 29.3-12.8 15.5-23.9 29.6-24.6 31.3-1.5 3.5-.3 8.5 2.7 11.2.9.9 12.5 6.3 25.7 12l23.9 10.3.5 57.1c.5 55.7.6 57.2 2.5 59.2 3.2 3.1 174.3 77.2 178.5 77.2 4.2 0 175.2-73.9 178.4-77.2 2.1-2 2.1-2.9 2.6-59.1l.5-57.1 23.9-10.4c13.2-5.7 24.8-11.1 25.7-12 3-2.7 4.2-7.7 2.7-11.2-.7-1.7-11.8-15.8-24.6-31.3-12.9-15.4-23.5-28.6-23.8-29.3-.2-.6 10.6-14.3 24.1-30.4 13.8-16.7 24.6-30.5 25-32.1.7-3.4-.6-7-3.6-9.7-1.3-1.2-10.3-5.5-19.9-9.7-9.6-4.1-47.2-20.4-83.5-36.2-36.3-15.8-67.8-29.3-69.9-30.1-7.5-2.7-8.4-2-33.8 28.4-12.7 15.3-23.4 27.7-23.8 27.7-.4 0-11.1-12.4-23.8-27.6C214.8 46 208.4 39 205.9 38.1c-3.9-1.4-3.4-1.4-8.9.8zm21.9 45.2c10.6 12.7 18.9 23.5 18.4 23.9-.4.5-34.1 15.3-74.7 33-70.5 30.6-74.1 32-75.6 30.3-8.2-8.8-37-44.7-36.4-45.3.5-.4 33.3-14.8 72.9-32 39.6-17.1 72.6-31.6 73.5-32.1.8-.4 1.8-.9 2.1-.9.3 0 9.2 10.4 19.8 23.1zm168.6 9.4c40.2 17.4 73.4 32.1 73.8 32.5 1.1 1-37.3 47.2-38.7 46.6-.6-.2-23.6-10.2-51.1-22.1-27.5-11.9-60.3-26.2-73-31.7-12.6-5.5-23.4-10.3-23.8-10.8-1.1-1 37.3-47.2 38.7-46.6.6.2 34 14.7 74.1 32.1zm-59 61.5c38.7 16.8 70.5 30.7 70.5 31 0 .3-32 14.4-71.1 31.4-45.7 19.8-71.8 30.6-73.1 30.3-5-1.3-141.6-61.3-141-61.9 1.6-1.6 140.9-61.7 142.5-61.5 1 .1 33.5 13.9 72.2 30.7zm-164 77.1c40.2 17.4 73 32.1 73 32.7 0 1.7-37.7 46.7-38.9 46.4-.6-.2-15.9-6.8-34.1-14.7-96.7-42-110.2-47.8-112.3-48.6-1.3-.5-2.2-1.3-2-1.9.2-.5 8.8-11.3 19.2-23.9 14.1-17.1 19.3-22.8 20.5-22.3.9.3 34.5 14.9 74.6 32.3zm279.5-8.3c9.6 11.7 17.5 21.7 17.5 22.3 0 .7-87.1 39.2-142.6 62.8l-6.5 2.9-19-23c-10.4-12.7-18.9-23.5-18.9-24s7.7-4.3 17-8.4C427.1 197.5 423.4 199 425 200.8c.8 1 9.4 11.4 19 23zm-293 90.1c47.7 20.7 52.6 22.5 56.9 20.2 1-.6 9.6-10.5 19.2-22.1l17.4-21.1.3 77.7c.1 42.7 0 77.9-.2 78.1-.4.4-73.7-31.2-138.3-59.4L96 382.8V290.1l3.3 1.4c1.7.7 25 10.8 51.7 22.4zM415.3 383c-1.5 1.3-147.4 64.2-147.9 63.8-.2-.3-.3-35.5-.2-78.2l.3-77.7 17.4 21.1c9.6 11.6 18.2 21.5 19.2 22.1 4.4 2.3 9.2.6 60-21.4l51.4-22.3.3 46c.1 25.3-.1 46.3-.5 46.6z" fill="rgba(84, 60, 51, 1)" stroke="none"/>
</svg>
</g></svg></g></g>
<!-- /image 41723 -->

<!-- image 16886 -->
<g id="transformed-16886" data-image="16886" transform="translate(355.9480607067864, 363.9480607067863) rotate(330, 154.0519392932136, 154.0519392932137)"><g><svg version="1.1" width="308.1038785864272px" height="308.1038785864274px" viewBox="0 0 308.1038785864272 308.1038785864274"><g id="original-16886"><svg xmlns="http://www.w3.org/2000/svg" version="1.1" viewBox="0 0 512 512" xmlns:xlink="http://www.w3.org/1999/xlink" preserveAspectRatio="xMidYMid meet">
  <path d="M118.4 12c-5 1.5-12.5 7.1-16.1 11.8-4.2 5.5-6.3 12.8-6.3 21.8v7.2l-20.7.4c-17.5.5-21.8.9-27.4 2.7-17.2 5.5-30.8 20-35.4 37.7-2.3 8.7-2.3 316 0 324.7 4.6 17.7 18 32 35.4 38l6.6 2.2 119.4.3 119.5.3 9 8.7c22.9 22.1 50.2 33.2 81.5 33.2 31.2 0 58.5-11 81-32.4 23.4-22.4 36.1-52.1 36.1-84.7 0-31.3-11.1-58.6-33.2-81.5l-8.7-9-.3-98c-.3-91.7-.4-98.2-2.2-103.4-6-18.2-18.8-30.9-36.6-36.5-4.2-1.4-10.4-1.9-26.1-2.2l-20.7-.5-.4-9.7c-.3-7.9-.9-10.5-3.1-14.7-11.9-23.3-45.3-23.2-56.8.1-2.6 5.3-3.2 8-3.7 15.5l-.5 9H160.2l-.4-9.3c-.3-7.6-.9-10.3-3.1-14.9-3.1-6.2-8.4-11.6-14.9-14.9-4.8-2.5-18-3.6-23.4-1.9zm14.7 21.6c5.3 2.7 5.9 5.9 5.9 30.4 0 16.8-.3 22.9-1.4 25.5-1.5 3.5-5.9 6.5-9.6 6.5-3.7 0-8.1-3-9.6-6.5-1.8-4.4-2-45.4-.3-50.4 1.3-3.6 6.1-7.1 9.7-7.1 1.3 0 3.7.7 5.3 1.6zm215.8 1.8l2.6 2.6v51.8l-2.4 2.6c-4.8 5.1-14.2 4-17-2-1.5-3.3-1.5-49.4 0-52.7 2.7-6 11.8-7.3 16.8-2.3zM96.2 84.3c.5 11 3.4 18.3 9.8 24.1 7.3 6.6 11.4 8.1 22 8.1s14.7-1.5 22-8.1c6.4-5.8 9.3-13.1 9.8-24.1l.4-9.3h148.5l.5 8.9c.7 10.9 3.6 18.1 10.3 24.5 6.5 6.3 13.8 8.9 23.5 8.4 12-.7 21.3-6.7 26.8-17.3 2.1-4.1 2.7-6.7 3-14.8l.4-9.7H392c14.9 0 19.9.4 24 1.7 6.5 2.1 14.2 8.9 17.8 15.7 2.6 5 2.7 5.5 3 25.8l.3 20.8H32v-18.3c0-20.7 1-25.9 6.3-32.9 3.6-4.8 11.2-10.3 16.1-11.7 1.7-.5 11.7-1 22.2-1l19.2-.1.4 9.3zM437 219.6c0 47.3-.3 59.5-1.2 59.1-19.7-8.6-28.5-10.8-47.3-11.4-16.9-.6-27.5.8-41 5.3-10.5 3.5-25.4 11.2-33.5 17.3-8.4 6.3-21.4 19.9-26.9 28-6.5 9.5-13.7 25.3-16.6 36.6-3.3 12.3-4.4 33.6-2.5 46.6 1.2 8.9 6 24.9 9.1 31.1 1.1 2.1 1.9 4 1.9 4.3 0 .3-50.5.4-112.2.3l-112.3-.3-4.3-2.3c-6.6-3.5-11.9-8.8-14.9-15l-2.8-5.7-.3-126.8L32 160h405v59.6zm-29.9 71.3c30 7.8 54.7 29.3 65.8 57.2 5.3 13.2 6.5 19.9 6.5 35.9s-1.2 22.7-6.5 35.9c-4.7 11.7-11.4 21.7-21.3 31.7-13.4 13.3-28 21.5-46.2 26.1-10.5 2.6-33.4 2.4-44.1-.4-35.2-9.3-60.9-34.8-70.5-70.2-2.8-10.2-3.1-34.2-.5-44.5 9.6-38.1 38.9-65.9 77-73.2 10-1.9 29.9-1.2 39.8 1.5z" fill="rgba(79, 84, 115, 1)" stroke="none"/>
  <path d="M91.2 182.5c-6.2 1.9-10.6 5.7-13.6 11.7-2.4 4.9-2.6 6.1-2.6 19.2 0 15.9 1.1 19.6 7.1 25.3 5.7 5.4 9.2 6.3 24.7 6.3 12.9 0 14.2-.2 19-2.6 9.8-4.9 13.2-12.4 13.2-28.9 0-13.3-1.9-19.6-7.4-25.1-5.6-5.6-11.8-7.4-25.5-7.3-5.8 0-12.5.6-14.9 1.4zm25.6 30.7l-.3 10.3h-20l-.3-8.9c-.2-4.9-.1-9.5.2-10.3.4-1 3.2-1.3 10.6-1.3h10.1l-.3 10.2z" fill="rgba(79, 84, 115, 1)" stroke="none"/>
  <path d="M178.5 181.9c-7.9 2-15.2 8.8-17.3 16-.7 2.1-1.2 9.4-1.2 16.2 0 10.9.3 13 2.4 17.4 2.5 5.4 7.1 10 12.3 12.2 2.2.9 7.8 1.3 17.3 1.3s15.1-.4 17.3-1.3c5.2-2.2 9.8-6.8 12.3-12.2 2.1-4.4 2.4-6.5 2.4-17.4 0-14.3-1-18.6-5.8-24.1-5.9-6.9-9.8-8.3-24.2-8.6-6.9-.2-13.8 0-15.5.5zm24 31.6v10h-21l-.3-8.9c-.2-4.9 0-9.6.2-10.3.4-1.1 2.9-1.3 10.8-1.1l10.3.3v10z" fill="rgba(79, 84, 115, 1)" stroke="none"/>
  <path d="M261 183c-11.4 3.9-16 12.7-16 30.5 0 16.5 3.4 24 13.2 28.9 4.8 2.4 6.1 2.6 19 2.6 15.5 0 19-.9 24.7-6.3 6-5.7 7.1-9.4 7.1-25.3 0-13.1-.2-14.3-2.6-19.2-4.9-9.9-12.3-13.2-29.3-13.2-7.7.1-12.1.6-16.1 2zm26.5 30.5v10h-20l-.3-10.3-.3-10.3 10.3.3 10.3.3v10z" fill="rgba(79, 84, 115, 1)" stroke="none"/>
  <path d="M347.2 182.5c-6.2 1.9-10.6 5.7-13.6 11.7-2.4 4.9-2.6 6.1-2.6 19.2 0 15.9 1.1 19.6 7.1 25.3 5.7 5.4 9.2 6.3 24.7 6.3 12.9 0 14.2-.2 19-2.6 9.8-4.9 13.2-12.4 13.2-28.9 0-13.3-1.9-19.6-7.4-25.1-5.6-5.6-11.8-7.4-25.5-7.3-5.8 0-12.5.6-14.9 1.4zm25.6 30.7l-.3 10.3h-20l-.3-8.9c-.2-4.9-.1-9.5.2-10.3.4-1 3.2-1.3 10.6-1.3h10.1l-.3 10.2z" fill="rgba(79, 84, 115, 1)" stroke="none"/>
  <path d="M88.5 268.9c-2.2 1-5.4 3.4-7.2 5.2-5.4 5.7-6.3 9.2-6.3 24.7 0 12.9.2 14.1 2.6 19.1 4.9 9.8 12.5 13.1 29.8 13.1 12.3 0 18.9-2 24.2-7.4 5.5-5.5 7.4-11.8 7.4-25.1 0-16.6-3.7-24.6-13.4-29.1-4.6-2.2-6.4-2.4-19.1-2.4-11.5 0-14.7.4-18 1.9zm28.3 29.9l.3 10.3-10.3-.3-10.3-.3-.3-8.9c-.2-4.9 0-9.6.2-10.3.4-1.1 2.8-1.3 10.3-1.1l9.8.3.3 10.3z" fill="rgba(79, 84, 115, 1)" stroke="none"/>
  <path d="M174.5 268.4c-5.1 2.2-9.7 6.8-12.1 12.1-2.1 4.4-2.4 6.5-2.4 17.4 0 14.3 1 18.6 5.8 24.1 6.3 7.4 9.6 8.5 26.2 8.5s19.9-1.1 26.2-8.5c4.8-5.5 5.8-9.8 5.8-24.1 0-10.9-.3-13-2.4-17.4-2.5-5.4-7.1-10-12.3-12.2-4.4-1.8-30.6-1.8-34.8.1zm28 30.1v10h-21l-.3-8.9c-.2-4.9 0-9.6.2-10.3.4-1.1 2.9-1.3 10.8-1.1l10.3.3v10z" fill="rgba(79, 84, 115, 1)" stroke="none"/>
  <path d="M88.5 354.4c-5.4 2.5-10 7.1-12.2 12.3-1.8 4.5-1.8 30.1 0 34.6 2.2 5.2 6.8 9.8 12.2 12.3 4.4 2.1 6.5 2.4 17.4 2.4 14.3 0 18.6-1 24.1-5.8 7.4-6.3 8.5-9.6 8.5-26.2s-1.1-19.9-8.5-26.2c-5.5-4.8-9.8-5.8-24.1-5.8-10.9 0-13 .3-17.4 2.4zm28 29.6v10.5h-20l-.3-9.4c-.1-5.2 0-10.1.2-10.8.4-1.1 2.8-1.3 10.3-1.1l9.8.3V384z" fill="rgba(79, 84, 115, 1)" stroke="none"/>
  <path d="M175.9 353.3c-5.7 2.1-9.7 5.4-12.6 10.5-2.7 4.6-2.8 5.1-2.8 20.3v15.6l3 4.9c1.9 3 4.9 6 7.9 7.9l4.9 3h31.4l4.9-3c3-1.9 6-4.9 7.9-7.9l3-4.9v-31.4l-3-4.9c-1.9-3-4.9-6-7.9-7.9-4.8-2.9-5.3-3-19-3.3-9.9-.1-15.2.2-17.7 1.1zm25.9 20.9c.7.7 1.2 4.4 1.2 9.8s-.5 9.1-1.2 9.8c-1.6 1.6-18 1.6-19.6 0-.7-.7-1.2-4.4-1.2-9.8s.5-9.1 1.2-9.8c.7-.7 4.4-1.2 9.8-1.2s9.1.5 9.8 1.2z" fill="rgba(79, 84, 115, 1)" stroke="none"/>
  <path d="M379.3 310.6c-6.1 3-6.3 4.6-6.3 41.4 0 37 .2 38.5 6.5 41.4 2.8 1.4 8.3 1.6 36.5 1.6 37 0 38.5-.2 41.4-6.5 2-4.1 2-4.9 0-9-2.9-6.1-5-6.5-35.3-6.5H395v-27.1c0-30.3-.4-32.4-6.5-35.3-4.1-2-5.2-2-9.2 0z" fill="rgba(79, 84, 115, 1)" stroke="none"/>
</svg>
</g></svg></g></g>
<!-- /image 16886 -->
</defs><rect x="0" y="0" width="700" height="650" fill="rgba(242, 181, 145, 1)"></rect><use xlink:href="#transformed-41723" transform="translate(-700, -650)"></use><use xlink:href="#transformed-41723" transform="translate(0, -650)"></use><use xlink:href="#transformed-41723" transform="translate(700, -650)"></use><use xlink:href="#transformed-41723" transform="translate(-700, 0)"></use><use xlink:href="#transformed-41723" transform="translate(0, 0)"></use><use xlink:href="#transformed-41723" transform="translate(700, 0)"></use><use xlink:href="#transformed-41723" transform="translate(-700, 650)"></use><use xlink:href="#transformed-41723" transform="translate(0, 650)"></use><use xlink:href="#transformed-41723" transform="translate(700, 650)"></use><use xlink:href="#transformed-16886" transform="translate(-700, -650)"></use><use xlink:href="#transformed-16886" transform="translate(0, -650)"></use><use xlink:href="#transformed-16886" transform="translate(700, -650)"></use><use xlink:href="#transformed-16886" transform="translate(-700, 0)"></use><use xlink:href="#transformed-16886" transform="translate(0, 0)"></use><use xlink:href="#transformed-16886" transform="translate(700, 0)"></use><use xlink:href="#transformed-16886" transform="translate(-700, 650)"></use><use xlink:href="#transformed-16886" transform="translate(0, 650)"></use><use xlink:href="#transformed-16886" transform="translate(700, 650)"></use></svg>